<?xml version="1.0" encoding="utf-8"?>
<!-- Generator: Adobe Illustrator 23.0.1, SVG Export Plug-In . SVG Version: 6.00 Build 0)  -->
<svg version="1.1" id="Layer_1" xmlns="http://www.w3.org/2000/svg" xmlns:xlink="http://www.w3.org/1999/xlink" x="0px" y="0px"
	 viewBox="0 0 50 40" style="enable-background:new 0 0 50 40;" xml:space="preserve">
<style type="text/css">
	.st0{display:none;}
	.st1{display:inline;fill:none;}
	.st2{display:inline;fill:#0079D1;}
	.st3{display:inline;}
	.st4{clip-path:url(#SVGID_2_);fill-rule:evenodd;clip-rule:evenodd;}
	.st5{clip-path:url(#SVGID_4_);fill-rule:evenodd;clip-rule:evenodd;fill:#BCC3C9;}
	.st6{clip-path:url(#SVGID_6_);fill-rule:evenodd;clip-rule:evenodd;fill:#BCC3C9;}
	.st7{clip-path:url(#SVGID_8_);fill-rule:evenodd;clip-rule:evenodd;fill:#BCC3C9;}
	.st8{clip-path:url(#SVGID_10_);fill-rule:evenodd;clip-rule:evenodd;fill:#BCC3C9;}
	.st9{clip-path:url(#SVGID_12_);fill-rule:evenodd;clip-rule:evenodd;fill:#BCC3C9;}
	.st10{clip-path:url(#SVGID_14_);fill-rule:evenodd;clip-rule:evenodd;fill:#BCC3C9;}
	.st11{clip-path:url(#SVGID_16_);fill-rule:evenodd;clip-rule:evenodd;fill:#BCC3C9;}
	.st12{clip-path:url(#SVGID_18_);fill-rule:evenodd;clip-rule:evenodd;fill:#BCC3C9;}
	.st13{clip-path:url(#SVGID_20_);fill-rule:evenodd;clip-rule:evenodd;fill:#BCC3C9;}
	.st14{clip-path:url(#SVGID_22_);fill-rule:evenodd;clip-rule:evenodd;fill:#BCC3C9;}
	.st15{clip-path:url(#SVGID_24_);fill-rule:evenodd;clip-rule:evenodd;fill:#BCC3C9;}
	.st16{clip-path:url(#SVGID_26_);fill-rule:evenodd;clip-rule:evenodd;fill:#BCC3C9;}
	.st17{clip-path:url(#SVGID_28_);fill-rule:evenodd;clip-rule:evenodd;fill:#BCC3C9;}
	.st18{clip-path:url(#SVGID_30_);fill-rule:evenodd;clip-rule:evenodd;fill:#BCC3C9;}
	.st19{clip-path:url(#SVGID_32_);fill-rule:evenodd;clip-rule:evenodd;fill:#BCC3C9;}
	.st20{clip-path:url(#SVGID_34_);fill-rule:evenodd;clip-rule:evenodd;fill:#BCC3C9;}
	.st21{clip-path:url(#SVGID_36_);fill-rule:evenodd;clip-rule:evenodd;fill:#BCC3C9;}
	.st22{clip-path:url(#SVGID_38_);fill-rule:evenodd;clip-rule:evenodd;fill:#BCC3C9;}
	.st23{clip-path:url(#SVGID_40_);fill-rule:evenodd;clip-rule:evenodd;fill:#BCC3C9;}
	.st24{clip-path:url(#SVGID_42_);fill-rule:evenodd;clip-rule:evenodd;fill:#BCC3C9;}
	.st25{clip-path:url(#SVGID_44_);fill-rule:evenodd;clip-rule:evenodd;fill:#BCC3C9;}
	.st26{clip-path:url(#SVGID_46_);fill-rule:evenodd;clip-rule:evenodd;}
	.st27{clip-path:url(#SVGID_48_);fill-rule:evenodd;clip-rule:evenodd;fill:#0079D1;}
	.st28{clip-path:url(#SVGID_50_);fill-rule:evenodd;clip-rule:evenodd;fill:#0079D1;}
	.st29{clip-path:url(#SVGID_52_);fill-rule:evenodd;clip-rule:evenodd;fill:#0079D1;}
	.st30{clip-path:url(#SVGID_54_);fill-rule:evenodd;clip-rule:evenodd;fill:#0079D1;}
	.st31{clip-path:url(#SVGID_56_);fill-rule:evenodd;clip-rule:evenodd;fill:#0079D1;}
	.st32{clip-path:url(#SVGID_58_);fill-rule:evenodd;clip-rule:evenodd;fill:#0079D1;}
	.st33{clip-path:url(#SVGID_60_);fill-rule:evenodd;clip-rule:evenodd;fill:#0079D1;}
	.st34{clip-path:url(#SVGID_62_);fill-rule:evenodd;clip-rule:evenodd;fill:#0079D1;}
	.st35{clip-path:url(#SVGID_64_);fill-rule:evenodd;clip-rule:evenodd;fill:#0079D1;}
	.st36{clip-path:url(#SVGID_66_);fill-rule:evenodd;clip-rule:evenodd;fill:#0079D1;}
	.st37{clip-path:url(#SVGID_68_);fill-rule:evenodd;clip-rule:evenodd;fill:#0079D1;}
	.st38{clip-path:url(#SVGID_70_);fill-rule:evenodd;clip-rule:evenodd;fill:#0079D1;}
	.st39{clip-path:url(#SVGID_72_);fill-rule:evenodd;clip-rule:evenodd;fill:#0079D1;}
	.st40{clip-path:url(#SVGID_74_);fill-rule:evenodd;clip-rule:evenodd;fill:#0079D1;}
	.st41{clip-path:url(#SVGID_76_);fill-rule:evenodd;clip-rule:evenodd;fill:#0079D1;}
	.st42{clip-path:url(#SVGID_78_);fill-rule:evenodd;clip-rule:evenodd;fill:#0079D1;}
	.st43{clip-path:url(#SVGID_80_);fill-rule:evenodd;clip-rule:evenodd;fill:#0079D1;}
	.st44{clip-path:url(#SVGID_82_);fill-rule:evenodd;clip-rule:evenodd;fill:#0079D1;}
	.st45{clip-path:url(#SVGID_84_);fill-rule:evenodd;clip-rule:evenodd;fill:#0079D1;}
	.st46{clip-path:url(#SVGID_86_);fill-rule:evenodd;clip-rule:evenodd;fill:#0079D1;}
	.st47{clip-path:url(#SVGID_88_);fill-rule:evenodd;clip-rule:evenodd;fill:#0079D1;}
	.st48{display:inline;fill:#BCC3C9;}
	.st49{display:none;fill:#0079D1;}
	.st50{fill:#BCC3C9;}
</style>
<g id="Settings" class="st0">
	<path class="st1" d="M16.76,20.04c-2.26,0-4.09,1.83-4.09,4.09s1.83,4.09,4.09,4.09s4.09-1.83,4.09-4.09
		C20.85,21.87,19.02,20.04,16.76,20.04z"/>
	<path class="st1" d="M44.74,17.12v-3.29H43c-0.33,0-0.61-0.24-0.66-0.52c-0.24-0.99-0.61-1.93-1.18-2.82
		c-0.19-0.28-0.14-0.61,0.09-0.85l1.22-1.22l-2.3-2.3l-1.22,1.22c-0.24,0.24-0.56,0.28-0.85,0.09c-0.85-0.52-1.83-0.94-2.82-1.18
		c-0.33-0.09-0.52-0.33-0.52-0.66V3.86h-3.29V5.6c0,0.33-0.24,0.61-0.52,0.66c-0.99,0.24-1.93,0.61-2.82,1.18
		c-0.28,0.19-0.61,0.14-0.85-0.09l-1.22-1.22l-2.3,2.3l1.22,1.22c0.24,0.24,0.28,0.56,0.09,0.85c-0.52,0.8-0.85,1.69-1.13,2.59
		c0.14,0.05,0.24,0.09,0.38,0.19l3.29,3.29c0.14,0.14,0.19,0.28,0.19,0.47c0,0.19-0.09,0.38-0.19,0.47l-1.36,1.36
		c0.38,0.71,0.71,1.46,0.94,2.21h1.93c0.38,0,0.66,0.28,0.66,0.66v2.54c0.38,0.14,0.8,0.28,1.18,0.38c0.33,0.09,0.52,0.33,0.52,0.66
		v1.74h3.29V25.3c0-0.33,0.24-0.61,0.52-0.66c0.99-0.24,1.93-0.61,2.82-1.18c0.28-0.19,0.61-0.14,0.85,0.09l1.22,1.22l2.3-2.3
		l-1.22-1.18c-0.24-0.24-0.28-0.56-0.09-0.85c0.52-0.89,0.94-1.83,1.18-2.82c0.09-0.33,0.33-0.52,0.66-0.52H44.74L44.74,17.12z
		 M33.12,20.93c-3.01,0-5.46-2.45-5.46-5.46s2.45-5.46,5.46-5.46s5.46,2.45,5.46,5.46S36.13,20.93,33.12,20.93z"/>
	<path class="st1" d="M33.12,11.38c-2.26,0-4.09,1.83-4.09,4.09s1.83,4.09,4.09,4.09s4.09-1.83,4.09-4.09S35.38,11.38,33.12,11.38z"
		/>
	<path class="st1" d="M21.46,13.83v0.52c0.19,0.09,0.33,0.19,0.52,0.28l0.8-0.8H21.46L21.46,13.83z"/>
	<path class="st1" d="M28.42,25.73v-0.94c0,0,0,0,0-0.05v-2.3h-1.74c-0.33,0-0.61-0.24-0.66-0.52c-0.24-0.99-0.61-1.93-1.18-2.82
		c-0.19-0.28-0.14-0.61,0.09-0.85l1.22-1.22l-2.3-2.3l-1.27,1.27c-0.24,0.24-0.56,0.28-0.85,0.09c-0.85-0.52-1.83-0.94-2.82-1.18
		c-0.33-0.09-0.52-0.33-0.52-0.66v-1.74h-3.29v1.74c0,0.33-0.24,0.61-0.52,0.66c-0.99,0.24-1.93,0.61-2.82,1.18
		c-0.28,0.19-0.61,0.14-0.85-0.09L9.7,14.72l-2.3,2.3l1.22,1.22c0.24,0.24,0.28,0.56,0.09,0.85c-0.52,0.85-0.94,1.83-1.18,2.82
		c-0.09,0.33-0.33,0.52-0.66,0.52H5.14v3.29h1.74c0.33,0,0.61,0.24,0.66,0.52c0.24,0.99,0.61,1.93,1.18,2.82
		c0.19,0.28,0.14,0.61-0.09,0.85L7.4,31.18l2.3,2.3l1.22-1.22c0.24-0.24,0.56-0.28,0.85-0.09c0.85,0.52,1.83,0.94,2.82,1.18
		c0.33,0.09,0.52,0.33,0.52,0.66v1.74h3.29V34c0-0.33,0.24-0.61,0.52-0.66c0.99-0.24,1.93-0.61,2.82-1.18
		c0.28-0.19,0.61-0.14,0.85,0.09l1.22,1.22l2.3-2.3l-1.22-1.22c-0.24-0.24-0.28-0.56-0.09-0.85c0.52-0.89,0.94-1.83,1.18-2.82
		c0.09-0.33,0.33-0.52,0.66-0.52L28.42,25.73L28.42,25.73z M16.76,29.58c-3.01,0-5.46-2.45-5.46-5.46s2.45-5.46,5.46-5.46
		s5.46,2.45,5.46,5.46S19.77,29.58,16.76,29.58z"/>
	<path class="st2" d="M33.12,10.02c-3.01,0-5.46,2.45-5.46,5.46s2.45,5.46,5.46,5.46s5.46-2.45,5.46-5.46S36.13,10.02,33.12,10.02z
		 M33.12,19.56c-2.26,0-4.09-1.83-4.09-4.09s1.83-4.09,4.09-4.09s4.09,1.83,4.09,4.09S35.38,19.56,33.12,19.56z"/>
	<path class="st2" d="M45.45,12.46h-1.93c-0.24-0.8-0.52-1.5-0.94-2.21l1.36-1.36c0.14-0.14,0.19-0.28,0.19-0.47
		s-0.09-0.38-0.19-0.47l-3.29-3.29c-0.28-0.28-0.71-0.28-0.94,0l-1.36,1.36c-0.71-0.38-1.46-0.71-2.21-0.94V3.15
		c0-0.38-0.28-0.66-0.66-0.66h-4.66c-0.42,0-0.71,0.28-0.71,0.66v1.93c-0.8,0.24-1.5,0.52-2.21,0.94l-1.36-1.36
		c-0.28-0.28-0.71-0.28-0.94,0l-3.29,3.29c-0.14,0.14-0.19,0.28-0.19,0.47s0.09,0.38,0.19,0.47l1.36,1.36
		c-0.38,0.71-0.71,1.46-0.94,2.21H20.8c-0.38,0-0.66,0.28-0.66,0.66v0.66c-0.09-0.05-0.24-0.09-0.33-0.09v-1.93
		c0-0.38-0.28-0.66-0.66-0.66H14.5c-0.38,0-0.66,0.28-0.66,0.66v1.93c-0.75,0.24-1.5,0.52-2.21,0.94l-1.36-1.36
		c-0.28-0.28-0.71-0.28-0.94,0l-3.29,3.29c-0.14,0.14-0.19,0.28-0.19,0.47c0,0.19,0.09,0.38,0.19,0.47l1.36,1.36
		c-0.38,0.71-0.71,1.46-0.94,2.21H4.44c-0.38,0.05-0.66,0.33-0.66,0.71v4.66c0,0.38,0.28,0.66,0.66,0.66h1.93
		c0.24,0.8,0.52,1.5,0.94,2.21l-1.36,1.41c-0.14,0.14-0.19,0.28-0.19,0.47s0.09,0.38,0.19,0.47l3.29,3.29
		c0.28,0.28,0.71,0.28,0.94,0l1.36-1.36c0.71,0.38,1.46,0.71,2.21,0.94v1.93c0,0.38,0.28,0.66,0.66,0.66h4.66
		c0.38,0,0.66-0.28,0.66-0.66v-1.93c0.75-0.24,1.5-0.52,2.21-0.94l1.36,1.36c0.28,0.28,0.71,0.28,0.94,0l3.29-3.29
		c0.14-0.14,0.19-0.28,0.19-0.47s-0.09-0.38-0.19-0.47l-1.36-1.36c0.38-0.71,0.71-1.46,0.94-2.21h1.93c0.38,0,0.66-0.28,0.66-0.66
		v-0.66c0.09,0.05,0.24,0.09,0.33,0.09v1.93c0,0.38,0.28,0.66,0.66,0.66h4.66c0.38,0,0.66-0.28,0.66-0.66v-1.93
		c0.75-0.24,1.5-0.52,2.21-0.94l1.36,1.36c0.28,0.28,0.71,0.28,0.94,0l3.29-3.29c0.14-0.14,0.19-0.28,0.19-0.47
		s-0.09-0.38-0.19-0.47l-1.36-1.36c0.38-0.71,0.71-1.46,0.94-2.21h1.93c0.38,0,0.66-0.28,0.66-0.66v-4.66
		C46.1,12.79,45.82,12.46,45.45,12.46z M42.34,17.64c-0.24,0.99-0.61,1.93-1.18,2.82c-0.19,0.28-0.14,0.61,0.09,0.85l1.22,1.22
		l-2.3,2.3l-1.22-1.22c-0.24-0.24-0.56-0.28-0.85-0.09c-0.89,0.52-1.83,0.94-2.82,1.18c-0.33,0.09-0.52,0.33-0.52,0.66v1.74h-3.29
		v-1.74c0-0.33-0.24-0.61-0.52-0.66c-0.42-0.09-0.8-0.24-1.18-0.38v-2.54c0-0.38-0.28-0.66-0.66-0.66H27.2
		c-0.24-0.8-0.52-1.5-0.94-2.21l1.36-1.36c0.14-0.14,0.19-0.28,0.19-0.47c0-0.19-0.09-0.38-0.19-0.47l-3.29-3.29
		c-0.09-0.09-0.24-0.14-0.38-0.19c0.24-0.94,0.61-1.79,1.13-2.59c0.19-0.28,0.14-0.61-0.09-0.85l-1.22-1.22l2.3-2.3l1.22,1.22
		c0.24,0.24,0.56,0.28,0.85,0.09c0.89-0.52,1.83-0.94,2.82-1.18c0.33-0.09,0.52-0.33,0.52-0.66V3.86h3.29V5.6
		c0,0.33,0.24,0.61,0.52,0.66c0.99,0.24,1.93,0.61,2.82,1.18c0.28,0.19,0.61,0.14,0.85-0.09l1.22-1.22l2.3,2.3l-1.22,1.22
		c-0.24,0.24-0.28,0.56-0.09,0.85c0.52,0.89,0.94,1.83,1.18,2.82c0.09,0.33,0.33,0.52,0.66,0.52h1.74v3.29H43
		C42.67,17.12,42.39,17.35,42.34,17.64z M25.98,26.29c-0.24,0.99-0.61,1.93-1.18,2.82c-0.19,0.28-0.14,0.61,0.09,0.85l1.22,1.22
		l-2.3,2.3l-1.22-1.22c-0.24-0.24-0.56-0.28-0.85-0.09c-0.89,0.52-1.83,0.94-2.82,1.18c-0.33,0.09-0.52,0.33-0.52,0.66v1.74h-3.29
		V34c0-0.33-0.24-0.61-0.52-0.66c-0.99-0.24-1.93-0.61-2.82-1.18c-0.28-0.19-0.61-0.14-0.85,0.09L9.7,33.49l-2.3-2.3l1.22-1.22
		c0.24-0.24,0.28-0.56,0.09-0.85c-0.52-0.85-0.94-1.83-1.18-2.82c-0.09-0.33-0.33-0.52-0.66-0.52H5.14v-3.29h1.74
		c0.33,0,0.61-0.24,0.66-0.52c0.24-0.99,0.61-1.93,1.18-2.82c0.19-0.28,0.14-0.61-0.09-0.85L7.4,17.07l2.3-2.3l1.22,1.22
		c0.24,0.24,0.56,0.28,0.85,0.09c0.89-0.52,1.83-0.94,2.82-1.18c0.33-0.09,0.52-0.33,0.52-0.66v-1.74h3.29v1.74
		c0,0.33,0.24,0.61,0.52,0.66c0.99,0.24,1.93,0.61,2.82,1.18c0.28,0.19,0.61,0.14,0.85-0.09l1.22-1.22l2.3,2.3l-1.22,1.22
		c-0.24,0.24-0.28,0.56-0.09,0.85c0.52,0.89,0.94,1.83,1.18,2.82c0.09,0.33,0.33,0.52,0.66,0.52h1.74v2.3c0,0,0,0,0,0.05v0.94h-1.74
		C26.31,25.73,26.07,25.96,25.98,26.29z M21.46,14.34v-0.52h1.32l-0.8,0.8C21.84,14.53,21.65,14.44,21.46,14.34z"/>
	<path class="st2" d="M16.76,18.67c-3.01,0-5.46,2.45-5.46,5.46s2.45,5.46,5.46,5.46s5.46-2.45,5.46-5.46S19.77,18.67,16.76,18.67z
		 M16.76,28.22c-2.26,0-4.09-1.83-4.09-4.09s1.83-4.09,4.09-4.09s4.09,1.83,4.09,4.09C20.85,26.38,19.02,28.22,16.76,28.22z"/>
</g>
<g class="st0">
	<g class="st3">
		<defs>
			<rect id="SVGID_1_" x="5" y="2" width="40" height="35"/>
		</defs>
		<clipPath id="SVGID_2_">
			<use xlink:href="#SVGID_1_"  style="overflow:visible;"/>
		</clipPath>
		<path class="st4" d="M5,3.67C5,2.75,5.75,2,6.67,2h36.67C44.25,2,45,2.73,45,3.67v31.67c0,0.92-0.75,1.67-1.67,1.67H6.67
			C5.75,37,5,36.27,5,35.33V3.67z M6.67,35.33h36.67V3.67H6.67V35.33z"/>
	</g>
	<g class="st3">
		<defs>
			<rect id="SVGID_3_" x="5" y="2" width="40" height="35"/>
		</defs>
		<clipPath id="SVGID_4_">
			<use xlink:href="#SVGID_3_"  style="overflow:visible;"/>
		</clipPath>
		<rect x="10" y="7" class="st5" width="5" height="1.67"/>
	</g>
	<g class="st3">
		<defs>
			<rect id="SVGID_5_" x="5" y="2" width="40" height="35"/>
		</defs>
		<clipPath id="SVGID_6_">
			<use xlink:href="#SVGID_5_"  style="overflow:visible;"/>
		</clipPath>
		<rect x="16.67" y="7" class="st6" width="8.33" height="1.67"/>
	</g>
	<g class="st3">
		<defs>
			<rect id="SVGID_7_" x="5" y="2" width="40" height="35"/>
		</defs>
		<clipPath id="SVGID_8_">
			<use xlink:href="#SVGID_7_"  style="overflow:visible;"/>
		</clipPath>
		<rect x="10" y="10.33" class="st7" width="5" height="1.67"/>
	</g>
	<g class="st3">
		<defs>
			<rect id="SVGID_9_" x="5" y="2" width="40" height="35"/>
		</defs>
		<clipPath id="SVGID_10_">
			<use xlink:href="#SVGID_9_"  style="overflow:visible;"/>
		</clipPath>
		<rect x="16.67" y="10.33" class="st8" width="8.33" height="1.67"/>
	</g>
	<g class="st3">
		<defs>
			<rect id="SVGID_11_" x="5" y="2" width="40" height="35"/>
		</defs>
		<clipPath id="SVGID_12_">
			<use xlink:href="#SVGID_11_"  style="overflow:visible;"/>
		</clipPath>
		<rect x="10" y="13.67" class="st9" width="5" height="1.67"/>
	</g>
	<g class="st3">
		<defs>
			<rect id="SVGID_13_" x="5" y="2" width="40" height="35"/>
		</defs>
		<clipPath id="SVGID_14_">
			<use xlink:href="#SVGID_13_"  style="overflow:visible;"/>
		</clipPath>
		<rect x="16.67" y="13.67" class="st10" width="8.33" height="1.67"/>
	</g>
	<g class="st3">
		<defs>
			<rect id="SVGID_15_" x="5" y="2" width="40" height="35"/>
		</defs>
		<clipPath id="SVGID_16_">
			<use xlink:href="#SVGID_15_"  style="overflow:visible;"/>
		</clipPath>
		<rect x="10" y="17" class="st11" width="5" height="1.67"/>
	</g>
	<g class="st3">
		<defs>
			<rect id="SVGID_17_" x="5" y="2" width="40" height="35"/>
		</defs>
		<clipPath id="SVGID_18_">
			<use xlink:href="#SVGID_17_"  style="overflow:visible;"/>
		</clipPath>
		<rect x="30" y="23.67" class="st12" width="3.33" height="1.67"/>
	</g>
	<g class="st3">
		<defs>
			<rect id="SVGID_19_" x="5" y="2" width="40" height="35"/>
		</defs>
		<clipPath id="SVGID_20_">
			<use xlink:href="#SVGID_19_"  style="overflow:visible;"/>
		</clipPath>
		<rect x="30" y="27" class="st13" width="3.33" height="1.67"/>
	</g>
	<g class="st3">
		<defs>
			<rect id="SVGID_21_" x="5" y="2" width="40" height="35"/>
		</defs>
		<clipPath id="SVGID_22_">
			<use xlink:href="#SVGID_21_"  style="overflow:visible;"/>
		</clipPath>
		<rect x="30" y="30.33" class="st14" width="3.33" height="1.67"/>
	</g>
	<g class="st3">
		<defs>
			<rect id="SVGID_23_" x="5" y="2" width="40" height="35"/>
		</defs>
		<clipPath id="SVGID_24_">
			<use xlink:href="#SVGID_23_"  style="overflow:visible;"/>
		</clipPath>
		<rect x="35" y="23.67" class="st15" width="5" height="1.67"/>
	</g>
	<g class="st3">
		<defs>
			<rect id="SVGID_25_" x="5" y="2" width="40" height="35"/>
		</defs>
		<clipPath id="SVGID_26_">
			<use xlink:href="#SVGID_25_"  style="overflow:visible;"/>
		</clipPath>
		<path class="st16" d="M31.97,18.23c-2.13-0.87-3.63-2.97-3.63-5.4c0-1.73,0.75-3.27,1.93-4.35l3,4.5L31.97,18.23z M33.57,18.63
			c0.2,0.02,0.4,0.03,0.6,0.03c3.22,0,5.83-2.62,5.83-5.83c0-0.2-0.02-0.4-0.03-0.6l-5.12,1.28L33.57,18.63z M31.65,7.57
			C32.42,7.2,33.27,7,34.17,7c2.43,0,4.53,1.5,5.4,3.62l-5.03,1.27L31.65,7.57z"/>
	</g>
	<g class="st3">
		<defs>
			<rect id="SVGID_27_" x="5" y="2" width="40" height="35"/>
		</defs>
		<clipPath id="SVGID_28_">
			<use xlink:href="#SVGID_27_"  style="overflow:visible;"/>
		</clipPath>
		<path class="st17" d="M5,3.67C5,2.75,5.75,2,6.67,2h36.67C44.25,2,45,2.73,45,3.67v31.67c0,0.92-0.75,1.67-1.67,1.67H6.67
			C5.75,37,5,36.27,5,35.33V3.67z M6.67,35.33h36.67V3.67H6.67V35.33z"/>
	</g>
	<g class="st3">
		<defs>
			<rect id="SVGID_29_" x="5" y="2" width="40" height="35"/>
		</defs>
		<clipPath id="SVGID_30_">
			<use xlink:href="#SVGID_29_"  style="overflow:visible;"/>
		</clipPath>
		<rect x="35" y="27" class="st18" width="5" height="1.67"/>
	</g>
	<g class="st3">
		<defs>
			<rect id="SVGID_31_" x="5" y="2" width="40" height="35"/>
		</defs>
		<clipPath id="SVGID_32_">
			<use xlink:href="#SVGID_31_"  style="overflow:visible;"/>
		</clipPath>
		<rect x="35" y="30.33" class="st19" width="5" height="1.67"/>
	</g>
	<g class="st3">
		<defs>
			<rect id="SVGID_33_" x="5" y="2" width="40" height="35"/>
		</defs>
		<clipPath id="SVGID_34_">
			<use xlink:href="#SVGID_33_"  style="overflow:visible;"/>
		</clipPath>
		<rect x="10" y="22" class="st20" width="1.67" height="10"/>
	</g>
	<g class="st3">
		<defs>
			<rect id="SVGID_35_" x="5" y="2" width="40" height="35"/>
		</defs>
		<clipPath id="SVGID_36_">
			<use xlink:href="#SVGID_35_"  style="overflow:visible;"/>
		</clipPath>
		<rect x="13.33" y="28.67" class="st21" width="1.67" height="3.33"/>
	</g>
	<g class="st3">
		<defs>
			<rect id="SVGID_37_" x="5" y="2" width="40" height="35"/>
		</defs>
		<clipPath id="SVGID_38_">
			<use xlink:href="#SVGID_37_"  style="overflow:visible;"/>
		</clipPath>
		<rect x="16.67" y="25.33" class="st22" width="1.67" height="6.67"/>
	</g>
	<g class="st3">
		<defs>
			<rect id="SVGID_39_" x="5" y="2" width="40" height="35"/>
		</defs>
		<clipPath id="SVGID_40_">
			<use xlink:href="#SVGID_39_"  style="overflow:visible;"/>
		</clipPath>
		<rect x="20" y="25.33" class="st23" width="1.67" height="6.67"/>
	</g>
	<g class="st3">
		<defs>
			<rect id="SVGID_41_" x="5" y="2" width="40" height="35"/>
		</defs>
		<clipPath id="SVGID_42_">
			<use xlink:href="#SVGID_41_"  style="overflow:visible;"/>
		</clipPath>
		<rect x="23.33" y="27" class="st24" width="1.67" height="5"/>
	</g>
	<g class="st3">
		<defs>
			<rect id="SVGID_43_" x="5" y="2" width="40" height="35"/>
		</defs>
		<clipPath id="SVGID_44_">
			<use xlink:href="#SVGID_43_"  style="overflow:visible;"/>
		</clipPath>
		<rect x="16.67" y="17" class="st25" width="8.33" height="1.67"/>
	</g>
</g>
<g class="st0">
	<g class="st3">
		<defs>
			<rect id="SVGID_45_" x="5" y="2" width="40" height="34.74"/>
		</defs>
		<clipPath id="SVGID_46_">
			<use xlink:href="#SVGID_45_"  style="overflow:visible;"/>
		</clipPath>
		<path class="st26" d="M5,3.65C5,2.74,5.75,2,6.67,2h36.67C44.25,2,45,2.73,45,3.65v31.43c0,0.91-0.75,1.65-1.67,1.65H6.67
			C5.75,36.74,5,36.01,5,35.08V3.65z M6.67,35.08h36.67V3.65H6.67V35.08z"/>
	</g>
	<g class="st3">
		<defs>
			<rect id="SVGID_47_" x="5" y="2" width="40" height="34.74"/>
		</defs>
		<clipPath id="SVGID_48_">
			<use xlink:href="#SVGID_47_"  style="overflow:visible;"/>
		</clipPath>
		<rect x="10" y="6.96" class="st27" width="5" height="1.65"/>
	</g>
	<g class="st3">
		<defs>
			<rect id="SVGID_49_" x="5" y="2" width="40" height="34.74"/>
		</defs>
		<clipPath id="SVGID_50_">
			<use xlink:href="#SVGID_49_"  style="overflow:visible;"/>
		</clipPath>
		<rect x="16.67" y="6.96" class="st28" width="8.33" height="1.65"/>
	</g>
	<g class="st3">
		<defs>
			<rect id="SVGID_51_" x="5" y="2" width="40" height="34.74"/>
		</defs>
		<clipPath id="SVGID_52_">
			<use xlink:href="#SVGID_51_"  style="overflow:visible;"/>
		</clipPath>
		<rect x="10" y="10.27" class="st29" width="5" height="1.65"/>
	</g>
	<g class="st3">
		<defs>
			<rect id="SVGID_53_" x="5" y="2" width="40" height="34.74"/>
		</defs>
		<clipPath id="SVGID_54_">
			<use xlink:href="#SVGID_53_"  style="overflow:visible;"/>
		</clipPath>
		<rect x="16.67" y="10.27" class="st30" width="8.33" height="1.65"/>
	</g>
	<g class="st3">
		<defs>
			<rect id="SVGID_55_" x="5" y="2" width="40" height="34.74"/>
		</defs>
		<clipPath id="SVGID_56_">
			<use xlink:href="#SVGID_55_"  style="overflow:visible;"/>
		</clipPath>
		<rect x="10" y="13.58" class="st31" width="5" height="1.65"/>
	</g>
	<g class="st3">
		<defs>
			<rect id="SVGID_57_" x="5" y="2" width="40" height="34.74"/>
		</defs>
		<clipPath id="SVGID_58_">
			<use xlink:href="#SVGID_57_"  style="overflow:visible;"/>
		</clipPath>
		<rect x="16.67" y="13.58" class="st32" width="8.33" height="1.65"/>
	</g>
	<g class="st3">
		<defs>
			<rect id="SVGID_59_" x="5" y="2" width="40" height="34.74"/>
		</defs>
		<clipPath id="SVGID_60_">
			<use xlink:href="#SVGID_59_"  style="overflow:visible;"/>
		</clipPath>
		<rect x="10" y="16.89" class="st33" width="5" height="1.65"/>
	</g>
	<g class="st3">
		<defs>
			<rect id="SVGID_61_" x="5" y="2" width="40" height="34.74"/>
		</defs>
		<clipPath id="SVGID_62_">
			<use xlink:href="#SVGID_61_"  style="overflow:visible;"/>
		</clipPath>
		<rect x="30" y="23.5" class="st34" width="3.33" height="1.65"/>
	</g>
	<g class="st3">
		<defs>
			<rect id="SVGID_63_" x="5" y="2" width="40" height="34.74"/>
		</defs>
		<clipPath id="SVGID_64_">
			<use xlink:href="#SVGID_63_"  style="overflow:visible;"/>
		</clipPath>
		<rect x="30" y="26.81" class="st35" width="3.33" height="1.65"/>
	</g>
	<g class="st3">
		<defs>
			<rect id="SVGID_65_" x="5" y="2" width="40" height="34.74"/>
		</defs>
		<clipPath id="SVGID_66_">
			<use xlink:href="#SVGID_65_"  style="overflow:visible;"/>
		</clipPath>
		<rect x="30" y="30.12" class="st36" width="3.33" height="1.65"/>
	</g>
	<g class="st3">
		<defs>
			<rect id="SVGID_67_" x="5" y="2" width="40" height="34.74"/>
		</defs>
		<clipPath id="SVGID_68_">
			<use xlink:href="#SVGID_67_"  style="overflow:visible;"/>
		</clipPath>
		<rect x="35" y="23.5" class="st37" width="5" height="1.65"/>
	</g>
	<g class="st3">
		<defs>
			<rect id="SVGID_69_" x="5" y="2" width="40" height="34.74"/>
		</defs>
		<clipPath id="SVGID_70_">
			<use xlink:href="#SVGID_69_"  style="overflow:visible;"/>
		</clipPath>
		<path class="st38" d="M31.97,18.11c-2.13-0.86-3.63-2.94-3.63-5.36c0-1.72,0.75-3.24,1.93-4.32l3,4.47L31.97,18.11z M33.57,18.51
			c0.2,0.02,0.4,0.03,0.6,0.03c3.22,0,5.83-2.6,5.83-5.79c0-0.2-0.02-0.4-0.03-0.6l-5.12,1.27L33.57,18.51z M31.65,7.52
			c0.77-0.36,1.62-0.56,2.52-0.56c2.43,0,4.53,1.49,5.4,3.59l-5.03,1.26L31.65,7.52z"/>
	</g>
	<g class="st3">
		<defs>
			<rect id="SVGID_71_" x="5" y="2" width="40" height="34.74"/>
		</defs>
		<clipPath id="SVGID_72_">
			<use xlink:href="#SVGID_71_"  style="overflow:visible;"/>
		</clipPath>
		<path class="st39" d="M5,3.65C5,2.74,5.75,2,6.67,2h36.67C44.25,2,45,2.73,45,3.65v31.43c0,0.91-0.75,1.65-1.67,1.65H6.67
			C5.75,36.74,5,36.01,5,35.08V3.65z M6.67,35.08h36.67V3.65H6.67V35.08z"/>
	</g>
	<g class="st3">
		<defs>
			<rect id="SVGID_73_" x="5" y="2" width="40" height="34.74"/>
		</defs>
		<clipPath id="SVGID_74_">
			<use xlink:href="#SVGID_73_"  style="overflow:visible;"/>
		</clipPath>
		<rect x="35" y="26.81" class="st40" width="5" height="1.65"/>
	</g>
	<g class="st3">
		<defs>
			<rect id="SVGID_75_" x="5" y="2" width="40" height="34.74"/>
		</defs>
		<clipPath id="SVGID_76_">
			<use xlink:href="#SVGID_75_"  style="overflow:visible;"/>
		</clipPath>
		<rect x="35" y="30.12" class="st41" width="5" height="1.65"/>
	</g>
	<g class="st3">
		<defs>
			<rect id="SVGID_77_" x="5" y="2" width="40" height="34.74"/>
		</defs>
		<clipPath id="SVGID_78_">
			<use xlink:href="#SVGID_77_"  style="overflow:visible;"/>
		</clipPath>
		<rect x="10" y="21.85" class="st42" width="1.67" height="9.92"/>
	</g>
	<g class="st3">
		<defs>
			<rect id="SVGID_79_" x="5" y="2" width="40" height="34.74"/>
		</defs>
		<clipPath id="SVGID_80_">
			<use xlink:href="#SVGID_79_"  style="overflow:visible;"/>
		</clipPath>
		<rect x="13.33" y="28.47" class="st43" width="1.67" height="3.31"/>
	</g>
	<g class="st3">
		<defs>
			<rect id="SVGID_81_" x="5" y="2" width="40" height="34.74"/>
		</defs>
		<clipPath id="SVGID_82_">
			<use xlink:href="#SVGID_81_"  style="overflow:visible;"/>
		</clipPath>
		<rect x="16.67" y="25.16" class="st44" width="1.67" height="6.62"/>
	</g>
	<g class="st3">
		<defs>
			<rect id="SVGID_83_" x="5" y="2" width="40" height="34.74"/>
		</defs>
		<clipPath id="SVGID_84_">
			<use xlink:href="#SVGID_83_"  style="overflow:visible;"/>
		</clipPath>
		<rect x="20" y="25.16" class="st45" width="1.67" height="6.62"/>
	</g>
	<g class="st3">
		<defs>
			<rect id="SVGID_85_" x="5" y="2" width="40" height="34.74"/>
		</defs>
		<clipPath id="SVGID_86_">
			<use xlink:href="#SVGID_85_"  style="overflow:visible;"/>
		</clipPath>
		<rect x="23.33" y="26.81" class="st46" width="1.67" height="4.96"/>
	</g>
	<g class="st3">
		<defs>
			<rect id="SVGID_87_" x="5" y="2" width="40" height="34.74"/>
		</defs>
		<clipPath id="SVGID_88_">
			<use xlink:href="#SVGID_87_"  style="overflow:visible;"/>
		</clipPath>
		<rect x="16.67" y="16.89" class="st47" width="8.33" height="1.65"/>
	</g>
</g>
<g class="st0">
	<path class="st2" d="M34.15,13.02c-0.06-0.29-0.29-0.46-0.58-0.46h-2.65v-2.13c0-3-2.42-5.42-5.42-5.42s-5.42,2.42-5.42,5.42v2.13
		h-2.65c-0.29,0-0.52,0.17-0.58,0.46l-3.75,21.29c-0.06,0.29,0.17,0.63,0.46,0.69c0.06,0,0.12,0,0.12,0h23.65
		c0.35,0,0.58-0.23,0.58-0.58c0-0.06,0-0.06,0-0.12L34.15,13.02z M21.23,10.42c0-2.37,1.9-4.27,4.27-4.27s4.27,1.9,4.27,4.27v2.13
		h-8.54V10.42z M14.36,33.85l3.58-20.13h2.19v2.65c0,0.35,0.23,0.58,0.58,0.58c0.35,0,0.58-0.23,0.58-0.58v-2.65h8.54v2.65
		c0,0.35,0.23,0.58,0.58,0.58c0.35,0,0.58-0.23,0.58-0.58v-2.65h2.19l3.52,20.13H14.36z"/>
	<path class="st2" d="M22.27,15.79c-0.35,0-0.58,0.23-0.58,0.58c0,0.58-0.46,1.04-1.04,1.04c-0.58,0-1.04-0.46-1.04-1.04l0,0
		c0-0.35-0.23-0.58-0.58-0.58c-0.35,0-0.58,0.23-0.58,0.58c0,1.21,0.98,2.19,2.19,2.19c1.21,0,2.19-0.98,2.19-2.19
		C22.84,16.02,22.61,15.79,22.27,15.79z"/>
	<path class="st2" d="M31.96,15.79c-0.35,0-0.58,0.23-0.58,0.58c0,0.58-0.46,1.04-1.04,1.04s-1.04-0.46-1.04-1.04l0,0
		c0-0.35-0.23-0.58-0.58-0.58c-0.35,0-0.58,0.23-0.58,0.58c0,1.21,0.98,2.19,2.19,2.19s2.19-0.98,2.19-2.19l0,0
		C32.54,16.02,32.3,15.79,31.96,15.79z"/>
</g>
<g class="st0">
	<path class="st48" d="M35.31,12.09c-0.07-0.33-0.33-0.52-0.65-0.52h-3.01V9.15C31.64,5.75,28.9,3,25.5,3s-6.15,2.75-6.15,6.15v2.42
		h-3.01c-0.33,0-0.59,0.2-0.65,0.52l-4.25,24.13c-0.07,0.33,0.2,0.72,0.52,0.78c0.07,0,0.13,0,0.13,0H38.9
		c0.39,0,0.65-0.26,0.65-0.65c0-0.07,0-0.07,0-0.13L35.31,12.09z M20.66,9.15c0-2.68,2.16-4.84,4.84-4.84s4.84,2.16,4.84,4.84v2.42
		h-9.68V9.15z M12.88,35.69l4.05-22.82h2.48v3.01c0,0.39,0.26,0.65,0.65,0.65c0.39,0,0.65-0.26,0.65-0.65v-3.01h9.68v3.01
		c0,0.39,0.26,0.65,0.65,0.65c0.39,0,0.65-0.26,0.65-0.65v-3.01h2.48l3.99,22.82H12.88z"/>
	<path class="st48" d="M21.84,15.23c-0.39,0-0.65,0.26-0.65,0.65c0,0.65-0.52,1.18-1.18,1.18s-1.18-0.52-1.18-1.18l0,0
		c0-0.39-0.26-0.65-0.65-0.65c-0.39,0-0.65,0.26-0.65,0.65c0,1.37,1.11,2.48,2.48,2.48s2.48-1.11,2.48-2.48
		C22.49,15.49,22.23,15.23,21.84,15.23z"/>
	<path class="st48" d="M32.82,15.23c-0.39,0-0.65,0.26-0.65,0.65c0,0.65-0.52,1.18-1.18,1.18c-0.65,0-1.18-0.52-1.18-1.18l0,0
		c0-0.39-0.26-0.65-0.65-0.65c-0.39,0-0.65,0.26-0.65,0.65c0,1.37,1.11,2.48,2.48,2.48c1.37,0,2.48-1.11,2.48-2.48l0,0
		C33.47,15.49,33.21,15.23,32.82,15.23z"/>
</g>
<g class="st0">
	<path class="st48" d="M36.2,25.78l-4.82-3.4c-1.35-0.94-2.16-2.5-2.16-4.16c0-0.03,0-0.07-0.01-0.09c1.62-2.08,2.61-5.08,2.61-7.07
		V8.67c0-3.44-2.78-5.95-6.6-5.95s-6.6,2.5-6.6,5.95v2.39c0,1.99,0.99,4.99,2.61,7.07c0,0.03-0.01,0.06-0.01,0.09
		c0,1.65-0.8,3.22-2.16,4.17l-4.82,3.4c-1.83,1.29-2.93,3.4-2.93,5.64v3.02c0,1.78,1.45,3.23,3.23,3.23h10.69H35.9
		c1.78,0,3.23-1.45,3.23-3.23v-3.02C39.12,29.18,38.02,27.08,36.2,25.78z M19.91,11.06V8.67c0-2.73,2.18-4.64,5.29-4.64
		s5.29,1.91,5.29,4.64v2.39c0,1.55-0.64,3.63-1.65,5.28c-1.09,1.8-2.42,2.85-3.65,2.85c-1.23,0-2.56-1.03-3.65-2.85
		C20.56,14.68,19.91,12.61,19.91,11.06z M37.81,34.44c0,1.06-0.86,1.93-1.93,1.93H25.19H14.52c-1.06,0-1.93-0.86-1.93-1.93v-3.02
		c0-1.81,0.88-3.53,2.37-4.57l4.82-3.4c1.38-0.98,2.31-2.45,2.61-4.09c0.84,0.69,1.78,1.13,2.8,1.13s1.96-0.42,2.8-1.13
		c0.3,1.64,1.23,3.11,2.61,4.09l4.82,3.4c1.48,1.04,2.37,2.76,2.37,4.57v3.02H37.81z"/>
	<path class="st48" d="M46.59,24.41l-3.33-2.34c-0.83-0.59-1.34-1.5-1.4-2.5c0.73-1.16,1.17-2.61,1.17-3.74v-1.4
		c0-2.18-1.75-3.77-4.15-3.77s-4.15,1.58-4.15,3.77v1.39c0,1.14,0.44,2.58,1.17,3.74c-0.06,1-0.57,1.93-1.4,2.5
		c-0.3,0.21-0.37,0.61-0.16,0.91c0.13,0.18,0.33,0.28,0.53,0.28c0.13,0,0.26-0.03,0.38-0.11c0.82-0.57,1.41-1.39,1.72-2.31
		c0.56,0.49,1.22,0.8,1.91,0.8s1.34-0.31,1.91-0.8c0.31,0.92,0.91,1.73,1.72,2.31l3.33,2.34c0.98,0.69,1.55,1.8,1.55,3v2.09
		c0,0.62-0.51,1.13-1.13,1.13h-5.01c-0.36,0-0.65,0.29-0.65,0.65c0,0.36,0.29,0.65,0.65,0.65h5.01c1.34,0,2.43-1.09,2.43-2.43v-2.09
		C48.69,26.86,47.91,25.34,46.59,24.41z M41.72,15.81c0,0.92-0.42,2.19-1.06,3.16c-0.01,0.01-0.02,0.03-0.03,0.06
		c-0.51,0.76-1.13,1.3-1.76,1.3c-0.63,0-1.25-0.55-1.76-1.3c-0.01-0.02-0.02-0.03-0.03-0.06c-0.63-0.96-1.06-2.24-1.06-3.16v-1.4
		c0-1.7,1.44-2.47,2.85-2.47c1.41,0,2.85,0.76,2.85,2.47V15.81L41.72,15.81z"/>
	<path class="st48" d="M9.44,31.69H4.43c-0.62,0-1.13-0.51-1.13-1.13v-2.09c0-1.19,0.59-2.31,1.55-3l3.33-2.34
		C9,22.57,9.6,21.75,9.91,20.83c0.56,0.49,1.22,0.8,1.91,0.8c0.7,0,1.34-0.31,1.91-0.8c0.31,0.92,0.91,1.73,1.72,2.31
		c0.11,0.08,0.24,0.11,0.38,0.11c0.21,0,0.4-0.09,0.53-0.28c0.21-0.3,0.14-0.7-0.16-0.91c-0.83-0.59-1.34-1.5-1.4-2.5
		c0.73-1.16,1.17-2.61,1.17-3.74v-1.4c0-2.18-1.75-3.77-4.15-3.77s-4.15,1.58-4.15,3.77v1.39c0,1.14,0.44,2.58,1.17,3.74
		c-0.06,1-0.57,1.93-1.4,2.5L4.11,24.4C2.79,25.34,2,26.86,2,28.48v2.09C2,31.91,3.09,33,4.43,33h5.01c0.36,0,0.65-0.29,0.65-0.65
		C10.1,31.98,9.8,31.69,9.44,31.69z M8.97,14.41c0-1.7,1.42-2.47,2.85-2.47c1.41,0,2.85,0.76,2.85,2.47v1.4
		c0,0.92-0.42,2.19-1.06,3.16c-0.01,0.01-0.02,0.03-0.03,0.06c-0.51,0.76-1.13,1.3-1.76,1.3s-1.25-0.55-1.76-1.3
		c-0.01-0.02-0.02-0.03-0.03-0.06c-0.63-0.96-1.06-2.24-1.06-3.16L8.97,14.41L8.97,14.41z"/>
</g>
<path class="st49" d="M10.56,33.1c0.44,0.69,1.21,1.08,2.05,1.08h8.15c0.12,2.31,2.17,4.09,4.58,3.93c2.21-0.12,3.98-1.81,4.1-3.93
	h8.15c1.33,0,2.41-1.04,2.41-2.31c0-0.35-0.08-0.69-0.24-1l-2.33-4.59v-6.55c0.04-5.17-3.45-9.71-8.64-11.22V6.55
	c0-1.97-1.65-3.55-3.7-3.55s-3.7,1.58-3.7,3.55v1.97c-5.18,1.46-8.68,6.05-8.64,11.22v6.55l-2.33,4.59
	C10.08,31.6,10.12,32.41,10.56,33.1z M25.1,36.57c-1.41,0-2.61-1.04-2.73-2.39h5.46C27.71,35.53,26.5,36.57,25.1,36.57L25.1,36.57z
	 M25.1,4.54c1.16,0,2.09,0.89,2.09,2v1.7h-4.18v-1.7C23.01,5.43,23.93,4.54,25.1,4.54z M22.53,9.78h5.1
	c4.82,1.08,8.19,5.2,8.15,9.94v6.32H14.37v-6.32C14.33,14.99,17.75,10.86,22.53,9.78z M11.88,31.56l2.01-3.93H36.3l2.01,3.93
	c0.2,0.39,0.04,0.85-0.36,1.04c-0.12,0.04-0.24,0.08-0.36,0.08H12.61c-0.44,0-0.8-0.35-0.8-0.77C11.8,31.75,11.84,31.64,11.88,31.56
	z"/>
<path class="st50" d="M10.56,33.1c0.44,0.69,1.21,1.08,2.05,1.08h8.15c0.12,2.31,2.17,4.09,4.58,3.93c2.21-0.12,3.98-1.81,4.1-3.93
	h8.15c1.33,0,2.41-1.04,2.41-2.31c0-0.35-0.08-0.69-0.24-1l-2.33-4.59v-6.55c0.04-5.17-3.45-9.71-8.64-11.22V6.55
	c0-1.97-1.65-3.55-3.7-3.55s-3.7,1.58-3.7,3.55v1.97c-5.18,1.46-8.68,6.05-8.64,11.22v6.55l-2.33,4.59
	C10.08,31.6,10.12,32.41,10.56,33.1z M25.1,36.57c-1.41,0-2.61-1.04-2.73-2.39h5.46C27.71,35.53,26.5,36.57,25.1,36.57L25.1,36.57z
	 M25.1,4.54c1.16,0,2.09,0.89,2.09,2v1.7h-4.18v-1.7C23.01,5.43,23.93,4.54,25.1,4.54z M22.53,9.78h5.1
	c4.82,1.08,8.19,5.2,8.15,9.94v6.32H14.37v-6.32C14.33,14.99,17.75,10.86,22.53,9.78z M11.88,31.56l2.01-3.93H36.3l2.01,3.93
	c0.2,0.39,0.04,0.85-0.36,1.04c-0.12,0.04-0.24,0.08-0.36,0.08H12.61c-0.44,0-0.8-0.35-0.8-0.77C11.8,31.75,11.84,31.64,11.88,31.56
	z"/>
<g class="st0">
	<path class="st1" d="M17.14,20.02c-2.15,0-3.9,1.75-3.9,3.9s1.75,3.9,3.9,3.9s3.9-1.75,3.9-3.9S19.29,20.02,17.14,20.02z"/>
	<path class="st1" d="M43.8,17.25v-3.14h-1.66c-0.31,0-0.58-0.22-0.63-0.49c-0.22-0.94-0.58-1.84-1.12-2.69
		c-0.18-0.27-0.13-0.58,0.09-0.81l1.16-1.16l-2.2-2.2l-1.16,1.16c-0.22,0.22-0.54,0.27-0.81,0.09c-0.81-0.49-1.75-0.9-2.69-1.12
		c-0.31-0.09-0.49-0.31-0.49-0.63V4.61h-3.14v1.66c0,0.31-0.22,0.58-0.49,0.63c-0.94,0.22-1.84,0.58-2.69,1.12
		c-0.27,0.18-0.58,0.13-0.81-0.09l-1.16-1.16l-2.2,2.2l1.16,1.16c0.22,0.22,0.27,0.54,0.09,0.81c-0.49,0.76-0.81,1.61-1.08,2.46
		c0.13,0.04,0.22,0.09,0.36,0.18l3.14,3.14c0.13,0.13,0.18,0.27,0.18,0.45s-0.09,0.36-0.18,0.45l-1.3,1.3
		c0.36,0.67,0.67,1.39,0.9,2.11h1.84c0.36,0,0.63,0.27,0.63,0.63v2.42c0.36,0.13,0.76,0.27,1.12,0.36c0.31,0.09,0.49,0.31,0.49,0.63
		v1.66h3.14v-1.66c0-0.31,0.22-0.58,0.49-0.63c0.94-0.22,1.84-0.58,2.69-1.12c0.27-0.18,0.58-0.13,0.81,0.09l1.16,1.16l2.2-2.2
		l-1.16-1.12c-0.22-0.22-0.27-0.54-0.09-0.81c0.49-0.85,0.9-1.75,1.12-2.69c0.09-0.31,0.31-0.49,0.63-0.49H43.8L43.8,17.25z
		 M32.73,20.88c-2.87,0-5.2-2.33-5.2-5.2s2.33-5.2,5.2-5.2c2.87,0,5.2,2.33,5.2,5.2S35.6,20.88,32.73,20.88z"/>
	<path class="st1" d="M32.73,11.78c-2.15,0-3.9,1.75-3.9,3.9s1.75,3.9,3.9,3.9c2.15,0,3.9-1.75,3.9-3.9S34.88,11.78,32.73,11.78z"/>
	<path class="st1" d="M21.62,14.11v0.49c0.18,0.09,0.31,0.18,0.49,0.27l0.76-0.76H21.62L21.62,14.11z"/>
	<path class="st1" d="M28.25,25.44v-0.9c0,0,0,0,0-0.04v-2.2H26.6c-0.31,0-0.58-0.22-0.63-0.49c-0.22-0.94-0.58-1.84-1.12-2.69
		c-0.18-0.27-0.13-0.58,0.09-0.81l1.16-1.16l-2.2-2.2l-1.21,1.21c-0.22,0.22-0.54,0.27-0.81,0.09c-0.81-0.49-1.75-0.9-2.69-1.12
		c-0.31-0.09-0.49-0.31-0.49-0.63v-1.66h-3.14v1.66c0,0.31-0.22,0.58-0.49,0.63c-0.94,0.22-1.84,0.58-2.69,1.12
		c-0.27,0.18-0.58,0.13-0.81-0.09l-1.16-1.21l-2.2,2.2l1.16,1.16c0.22,0.22,0.27,0.54,0.09,0.81c-0.49,0.81-0.9,1.75-1.12,2.69
		c-0.09,0.31-0.31,0.49-0.63,0.49H6.08v3.14h1.66c0.31,0,0.58,0.22,0.63,0.49c0.22,0.94,0.58,1.84,1.12,2.69
		c0.18,0.27,0.13,0.58-0.09,0.81l-1.16,1.21l2.2,2.2l1.16-1.16c0.22-0.22,0.54-0.27,0.81-0.09c0.81,0.49,1.75,0.9,2.69,1.12
		c0.31,0.09,0.49,0.31,0.49,0.63v1.66h3.14v-1.66c0-0.31,0.22-0.58,0.49-0.63c0.94-0.22,1.84-0.58,2.69-1.12
		c0.27-0.18,0.58-0.13,0.81,0.09l1.16,1.16l2.2-2.2l-1.16-1.16c-0.22-0.22-0.27-0.54-0.09-0.81c0.49-0.85,0.9-1.75,1.12-2.69
		c0.09-0.31,0.31-0.49,0.63-0.49L28.25,25.44L28.25,25.44z M17.14,29.12c-2.87,0-5.2-2.33-5.2-5.2s2.33-5.2,5.2-5.2
		s5.2,2.33,5.2,5.2S20.01,29.12,17.14,29.12z"/>
	<path class="st2" d="M32.73,10.48c-2.87,0-5.2,2.33-5.2,5.2s2.33,5.2,5.2,5.2c2.87,0,5.2-2.33,5.2-5.2S35.6,10.48,32.73,10.48z
		 M32.73,19.58c-2.15,0-3.9-1.75-3.9-3.9s1.75-3.9,3.9-3.9c2.15,0,3.9,1.75,3.9,3.9S34.88,19.58,32.73,19.58z"/>
	<path class="st2" d="M44.47,12.81h-1.84c-0.22-0.76-0.49-1.43-0.9-2.11l1.3-1.3c0.13-0.13,0.18-0.27,0.18-0.45
		c0-0.18-0.09-0.36-0.18-0.45L39.9,5.37c-0.27-0.27-0.67-0.27-0.9,0l-1.3,1.3C37.04,6.32,36.32,6,35.6,5.78V3.94
		c0-0.36-0.27-0.63-0.63-0.63h-4.44c-0.4,0-0.67,0.27-0.67,0.63v1.84c-0.76,0.22-1.43,0.49-2.11,0.9l-1.3-1.3
		c-0.27-0.27-0.67-0.27-0.9,0l-3.14,3.14c-0.13,0.13-0.18,0.27-0.18,0.45c0,0.18,0.09,0.36,0.18,0.45l1.3,1.3
		c-0.36,0.67-0.67,1.39-0.9,2.11H21c-0.36,0-0.63,0.27-0.63,0.63v0.63c-0.09-0.04-0.22-0.09-0.31-0.09v-1.84
		c0-0.36-0.27-0.63-0.63-0.63h-4.44c-0.36,0-0.63,0.27-0.63,0.63v1.84c-0.72,0.22-1.43,0.49-2.11,0.9l-1.3-1.3
		c-0.27-0.27-0.67-0.27-0.9,0l-3.14,3.14c-0.13,0.13-0.18,0.27-0.18,0.45s0.09,0.36,0.18,0.45l1.3,1.3
		c-0.36,0.67-0.67,1.39-0.9,2.11H5.41c-0.36,0.04-0.63,0.31-0.63,0.67v4.44c0,0.36,0.27,0.63,0.63,0.63h1.84
		c0.22,0.76,0.49,1.43,0.9,2.11l-1.3,1.34c-0.13,0.13-0.18,0.27-0.18,0.45c0,0.18,0.09,0.36,0.18,0.45l3.14,3.14
		c0.27,0.27,0.67,0.27,0.9,0l1.3-1.3c0.67,0.36,1.39,0.67,2.11,0.9v1.84c0,0.36,0.27,0.63,0.63,0.63h4.44
		c0.36,0,0.63-0.27,0.63-0.63v-1.84c0.72-0.22,1.43-0.49,2.11-0.9l1.3,1.3c0.27,0.27,0.67,0.27,0.9,0l3.14-3.14
		c0.13-0.13,0.18-0.27,0.18-0.45c0-0.18-0.09-0.36-0.18-0.45l-1.3-1.3c0.36-0.67,0.67-1.39,0.9-2.11h1.84
		c0.36,0,0.63-0.27,0.63-0.63v-0.63c0.09,0.04,0.22,0.09,0.31,0.09v1.84c0,0.36,0.27,0.63,0.63,0.63h4.44
		c0.36,0,0.63-0.27,0.63-0.63v-1.84c0.72-0.22,1.43-0.49,2.11-0.9l1.3,1.3c0.27,0.27,0.67,0.27,0.9,0l3.14-3.14
		c0.13-0.13,0.18-0.27,0.18-0.45c0-0.18-0.09-0.36-0.18-0.45l-1.3-1.3c0.36-0.67,0.67-1.39,0.9-2.11h1.84
		c0.36,0,0.63-0.27,0.63-0.63v-4.44C45.1,13.12,44.83,12.81,44.47,12.81z M41.52,17.74c-0.22,0.94-0.58,1.84-1.12,2.69
		c-0.18,0.27-0.13,0.58,0.09,0.81l1.16,1.16l-2.2,2.2l-1.16-1.16c-0.22-0.22-0.54-0.27-0.81-0.09c-0.85,0.49-1.75,0.9-2.69,1.12
		c-0.31,0.09-0.49,0.31-0.49,0.63v1.66h-3.14v-1.66c0-0.31-0.22-0.58-0.49-0.63c-0.4-0.09-0.76-0.22-1.12-0.36v-2.42
		c0-0.36-0.27-0.63-0.63-0.63h-1.84c-0.22-0.76-0.49-1.43-0.9-2.11l1.3-1.3c0.13-0.13,0.18-0.27,0.18-0.45
		c0-0.18-0.09-0.36-0.18-0.45l-3.14-3.14c-0.09-0.09-0.22-0.13-0.36-0.18c0.22-0.9,0.58-1.7,1.08-2.46
		c0.18-0.27,0.13-0.58-0.09-0.81L23.82,9l2.2-2.2l1.16,1.16c0.22,0.22,0.54,0.27,0.81,0.09c0.85-0.49,1.75-0.9,2.69-1.12
		c0.31-0.09,0.49-0.31,0.49-0.63v-1.7h3.14v1.66c0,0.31,0.22,0.58,0.49,0.63c0.94,0.22,1.84,0.58,2.69,1.12
		c0.27,0.18,0.58,0.13,0.81-0.09l1.16-1.16l2.2,2.2l-1.16,1.16c-0.22,0.22-0.27,0.54-0.09,0.81c0.49,0.85,0.9,1.75,1.12,2.69
		c0.09,0.31,0.31,0.49,0.63,0.49h1.66v3.14h-1.66C41.83,17.25,41.56,17.47,41.52,17.74z M25.92,25.98
		c-0.22,0.94-0.58,1.84-1.12,2.69c-0.18,0.27-0.13,0.58,0.09,0.81l1.16,1.16l-2.2,2.2l-1.16-1.16c-0.22-0.22-0.54-0.27-0.81-0.09
		c-0.85,0.49-1.75,0.9-2.69,1.12c-0.31,0.09-0.49,0.31-0.49,0.63v1.66h-3.14v-1.66c0-0.31-0.22-0.58-0.49-0.63
		c-0.94-0.22-1.84-0.58-2.69-1.12c-0.27-0.18-0.58-0.13-0.81,0.09l-1.16,1.16l-2.2-2.2l1.16-1.16c0.22-0.22,0.27-0.54,0.09-0.81
		c-0.49-0.81-0.9-1.75-1.12-2.69c-0.09-0.31-0.31-0.49-0.63-0.49H6.08v-3.14h1.66c0.31,0,0.58-0.22,0.63-0.49
		c0.22-0.94,0.58-1.84,1.12-2.69c0.18-0.27,0.13-0.58-0.09-0.81L8.23,17.2l2.2-2.2l1.16,1.16c0.22,0.22,0.54,0.27,0.81,0.09
		c0.85-0.49,1.75-0.9,2.69-1.12c0.31-0.09,0.49-0.31,0.49-0.63v-1.66h3.14v1.66c0,0.31,0.22,0.58,0.49,0.63
		c0.94,0.22,1.84,0.58,2.69,1.12c0.27,0.18,0.58,0.13,0.81-0.09l1.16-1.16l2.2,2.2l-1.16,1.16c-0.22,0.22-0.27,0.54-0.09,0.81
		c0.49,0.85,0.9,1.75,1.12,2.69c0.09,0.31,0.31,0.49,0.63,0.49h1.66v2.2c0,0,0,0,0,0.04v0.9h-1.66
		C26.24,25.44,26.01,25.67,25.92,25.98z M21.62,14.6v-0.49h1.25l-0.76,0.76C21.98,14.78,21.8,14.69,21.62,14.6z"/>
	<path class="st2" d="M17.14,18.72c-2.87,0-5.2,2.33-5.2,5.2s2.33,5.2,5.2,5.2s5.2-2.33,5.2-5.2S20.01,18.72,17.14,18.72z
		 M17.14,27.82c-2.15,0-3.9-1.75-3.9-3.9s1.75-3.9,3.9-3.9s3.9,1.75,3.9,3.9S19.29,27.82,17.14,27.82z"/>
</g>
<g class="st0">
	<path class="st48" d="M35.28,29.96c2.87-2.87,4.57-6.78,4.57-10.83C39.72,10.78,32.93,4,24.58,4S9.45,10.78,9.45,19.13
		s6.78,15.13,15.13,15.13c1.83,0,3.52-0.26,5.22-0.91l6,2.35c0.13,0,0.26,0,0.26,0c0.26,0,0.39-0.13,0.52-0.26
		c0.26-0.26,0.26-0.52,0.26-0.91L35.28,29.96z M30.19,31.79c-0.13,0-0.26,0-0.26,0c-0.13,0-0.26,0-0.26,0
		c-1.57,0.65-3.26,0.91-4.96,0.91c-7.57,0-13.57-6.13-13.57-13.57S17.28,5.57,24.72,5.57s13.44,6.13,13.44,13.57
		c0,3.78-1.57,7.44-4.44,9.91c-0.26,0.26-0.39,0.52-0.26,0.91l1.3,3.52L30.19,31.79z"/>
	<path class="st48" d="M19.24,13.26c0,0.13-0.13,0.39-0.13,0.52c0,1.04,1.57,1.43,2.22,0.78c0.78-0.91,2.22-1.7,3.52-1.17
		c1.17,0.52,1.57,2.09,1.17,3.13c-1.3,3.39-3.26,4.17-3,5.35c0.26,1.04,1.3,1.43,2.22,0.91c0.78-0.39,1.43-1.04,1.96-1.7
		c3.52-3.78,3.13-8.22,1.7-9.65C26.41,8.7,20.54,9.61,19.24,13.26z"/>
	<circle class="st48" cx="24.58" cy="26.44" r="2.09"/>
</g>
</svg>
