<?xml version="1.0" encoding="utf-8"?>
<!-- Generator: Adobe Illustrator 23.0.1, SVG Export Plug-In . SVG Version: 6.00 Build 0)  -->
<svg version="1.1" id="Layer_1" xmlns="http://www.w3.org/2000/svg" xmlns:xlink="http://www.w3.org/1999/xlink" x="0px" y="0px"
	 viewBox="0 0 15 16" style="enable-background:new 0 0 15 16;" xml:space="preserve">
<style type="text/css">
	.st0{fill:#FFFFFF;}
</style>
<g>
	<path class="st0" d="M14,7.25c-0.37,0-0.67-0.3-0.67-0.67c0-1.87-0.73-3.63-2.05-4.95c-0.26-0.26-0.26-0.68,0-0.94
		c0.26-0.26,0.68-0.26,0.94,0c1.57,1.57,2.44,3.67,2.44,5.89C14.67,6.96,14.37,7.25,14,7.25z"/>
	<path class="st0" d="M0.67,7.25C0.3,7.25,0,6.95,0,6.59c0-2.22,0.87-4.32,2.44-5.89c0.26-0.26,0.68-0.26,0.94,0
		c0.26,0.26,0.26,0.68,0,0.94C2.06,2.96,1.33,4.72,1.33,6.59C1.33,6.96,1.03,7.25,0.67,7.25z"/>
	<path class="st0" d="M13.59,11.27C12.58,10.42,12,9.18,12,7.86V6c0-2.35-1.74-4.29-4-4.61V0.67C8,0.3,7.7,0,7.33,0
		C6.97,0,6.67,0.3,6.67,0.67v0.72c-2.26,0.32-4,2.27-4,4.61v1.86c0,1.32-0.58,2.57-1.59,3.42c-0.26,0.22-0.41,0.54-0.41,0.89
		c0,0.64,0.52,1.17,1.17,1.17h11c0.64,0,1.17-0.52,1.17-1.17C14,11.82,13.85,11.5,13.59,11.27z"/>
	<path class="st0" d="M7.33,16c1.21,0,2.22-0.86,2.45-2h-4.9C5.12,15.14,6.13,16,7.33,16z"/>
</g>
</svg>
